<?xml version="1.0" encoding="utf-8"?>
<!-- Generator: Adobe Illustrator 23.1.0, SVG Export Plug-In . SVG Version: 6.00 Build 0)  -->
<svg version="1.1" id="图层_1" xmlns="http://www.w3.org/2000/svg" xmlns:xlink="http://www.w3.org/1999/xlink" x="0px" y="0px"
	 viewBox="0 0 200 200" style="enable-background:new 0 0 200 200;" xml:space="preserve">
<style type="text/css">
	.st0{fill:none;}
	.st1{fill:#444444;}
</style>
<rect class="st0" width="200" height="200"/>
<path class="st1" d="M100.2,98.2c-23.6,0-42.9-19.2-42.9-42.9s19.2-42.9,42.9-42.9s42.9,19.2,42.9,42.9S123.9,98.2,100.2,98.2z
	 M158.3,187.4H42.2c-11.7,0-21.2-9.5-21.2-21.2c0-17,6.7-31.7,18.8-43.8c12.1-12.1,28.2-18.8,45.2-18.8h30.5
	c17,0,33.1,6.7,45.2,18.8c12.1,12.1,18.8,26.7,18.8,43.8C179.5,177.9,170,187.4,158.3,187.4L158.3,187.4z"/>
</svg>
