<?xml version="1.0" encoding="utf-8"?>
<!-- Generator: Adobe Illustrator 23.1.0, SVG Export Plug-In . SVG Version: 6.00 Build 0)  -->
<svg version="1.1" id="图层_1" xmlns="http://www.w3.org/2000/svg" xmlns:xlink="http://www.w3.org/1999/xlink" x="0px" y="0px"
	 viewBox="0 0 1024 1024" style="enable-background:new 0 0 1024 1024;" xml:space="preserve">
<style type="text/css">
	.st0{fill:none;}
	.st1{fill:#9898AC;}
</style>
<rect class="st0" width="1024" height="1024"/>
<g>
	<path class="st1" d="M728.2,591.5l184,214.8c18.6,21.8,22.9,52.3,10.9,78.3s-37.9,42.7-66.6,42.7H612.8V721.6
		c0-7.9-6.4-14.3-14.3-14.3h-44.7c-7.9,0-14.3,6.4-14.3,14.3v205.6H295.7c-28.6,0-54.7-16.6-66.6-42.7c-12-26.1-7.7-56.6,10.9-78.3
		l184-214.6c45.8,27.9,98.5,42.5,152.1,42.5C631.9,634,683.9,618.5,728.2,591.5L728.2,591.5z"/>
	<circle class="st1" cx="576.2" cy="340.8" r="244.4"/>
</g>
<path class="st1" d="M190.5,893.7c-13-28.3-8.4-61.3,11.8-84.9l142.9-166.7V501.6c0-6.3-5.2-11.5-11.5-11.5H108.4
	c-6.3,0-11.5,5.2-11.5,11.5v415.2c0,6.3,5.2,11.5,11.5,11.5h112.7C208,920.2,197.2,908.4,190.5,893.7z M174.5,583.2h93.1
	c8.6,0,15.5,6.9,15.5,15.5s-6.9,15.5-15.5,15.5h-93.1c-8.6,0-15.5-6.9-15.5-15.5C159,590.1,166,583.2,174.5,583.2z M159,660.7
	c0-8.6,6.9-15.5,15.5-15.5h93.1c8.6,0,15.5,6.9,15.5,15.5s-6.9,15.5-15.5,15.5h-93.1C166,676.3,159,669.3,159,660.7z"/>
</svg>
