<?xml version="1.0" encoding="utf-8"?>
<!-- Generator: Adobe Illustrator 23.1.0, SVG Export Plug-In . SVG Version: 6.00 Build 0)  -->
<svg version="1.1" id="图层_1" xmlns="http://www.w3.org/2000/svg" xmlns:xlink="http://www.w3.org/1999/xlink" x="0px" y="0px"
	 viewBox="0 0 1024 1024" style="enable-background:new 0 0 1024 1024;" xml:space="preserve">
<style type="text/css">
	.st0{fill:#9898AC;}
	.st1{fill:none;}
</style>
<path class="st0" d="M138.3,97.8h293.5c22.1,0,40,17.9,40,40v293.5c0,22.1-17.9,40-40,40H138.3c-22.1,0-40-17.9-40-40V137.8
	C98.3,115.8,116.2,97.8,138.3,97.8z M594.8,97.8h293.5c22.1,0,40,17.9,40,40v293.5c0,22.1-17.9,40-40,40H594.8
	c-22.1,0-40-17.9-40-40V137.8C554.8,115.8,572.7,97.8,594.8,97.8z M138.3,554.2h293.5c22.1,0,40,17.9,40,40v293.5
	c0,22.1-17.9,40-40,40H138.3c-22.1,0-40-17.9-40-40V594.2C98.3,572.1,116.2,554.2,138.3,554.2z M809.6,776.6l82.3,96.1
	c8.3,9.7,10.3,23.4,4.9,35s-17,19.1-29.8,19.1H758v-92c0-3.5-2.9-6.4-6.4-6.4h-20c-3.5,0-6.4,2.9-6.4,6.4v92H616
	c-12.8,0-24.5-7.4-29.8-19.1c-5.4-11.7-3.5-25.3,4.9-35l82.3-96c20.5,12.5,44.1,19,68,19C766.5,795.6,789.7,788.7,809.6,776.6
	L809.6,776.6z M741.6,555C802,555,851,604,851,664.4c0,60.5-48.8,109.4-109.4,109.4c-60.4,0-109.4-49-109.4-109.4
	C632.2,604,681.1,555,741.6,555z"/>
<rect x="0.3" y="-0.4" class="st1" width="1024" height="1024"/>
</svg>
