<?xml version="1.0" encoding="utf-8"?>
<!-- Generator: Adobe Illustrator 23.1.0, SVG Export Plug-In . SVG Version: 6.00 Build 0)  -->
<svg version="1.1" id="图层_1" xmlns="http://www.w3.org/2000/svg" xmlns:xlink="http://www.w3.org/1999/xlink" x="0px" y="0px"
	 viewBox="0 0 1024 1024" style="enable-background:new 0 0 1024 1024;" xml:space="preserve">
<style type="text/css">
	.st0{fill:none;}
	.st1{fill:#9898AC;}
</style>
<rect class="st0" width="1024" height="1024"/>
<path class="st1" d="M606.8,584.5H887c17,0,30.7-13.7,30.7-30.7V94.6c0-17-13.7-30.7-30.7-30.7h-39.8H128.8
	c-17,0-30.7,13.7-30.7,30.7v39.8v754.8c0,39,31.6,70.5,70.5,70.5l0,0h376.8c17,0,30.7-13.7,30.7-30.7V615.2
	C576.1,598.3,589.9,584.5,606.8,584.5z M282.7,249.1h449.4c16.4,0,30.3,12.8,30.7,29.2c0.4,16.9-13.2,30.8-30,30.8H283.4
	c-16.4,0-30.3-12.8-30.7-29.2C252.3,263,265.9,249.1,282.7,249.1z M282.7,394.7h349.4c16.4,0,30.3,12.8,30.7,29.2
	c0.4,16.9-13.2,30.8-30,30.8H283.4c-16.4,0-30.3-12.8-30.7-29.2C252.3,408.6,265.9,394.7,282.7,394.7z M432.8,745.9H283.4
	c-16.4,0-30.3-12.8-30.7-29.2c-0.4-16.9,13.2-30.8,30-30.8h149.4c16.4,0,30.3,12.8,30.7,29.2C463.2,732,449.6,745.9,432.8,745.9z
	 M532.8,600.3H283.4c-16.4,0-30.3-12.8-30.7-29.2c-0.4-16.9,13.2-30.8,30-30.8h249.4c16.4,0,30.3,12.8,30.7,29.2
	C563.2,586.5,549.6,600.3,532.8,600.3z"/>
<g>
	<path class="st1" d="M829.5,813.5l80.6,94.1c8.2,9.5,10,22.9,4.8,34.3c-5.3,11.4-16.6,18.7-29.2,18.7H778.9v-90.1
		c0-3.5-2.8-6.3-6.3-6.3H753c-3.5,0-6.3,2.8-6.3,6.3v90.1H639.9c-12.5,0-24-7.3-29.2-18.7c-5.3-11.4-3.4-24.8,4.8-34.3l80.6-94
		c20.1,12.2,43.2,18.6,66.6,18.6C787.2,832.2,810,825.4,829.5,813.5L829.5,813.5z"/>
	<circle class="st1" cx="762.8" cy="703.7" r="107.1"/>
</g>
</svg>
