<?xml version="1.0" encoding="utf-8"?>
<!-- Generator: Adobe Illustrator 23.1.0, SVG Export Plug-In . SVG Version: 6.00 Build 0)  -->
<svg version="1.1" id="图层_1" xmlns="http://www.w3.org/2000/svg" xmlns:xlink="http://www.w3.org/1999/xlink" x="0px" y="0px"
	 viewBox="0 0 1024 1024" style="enable-background:new 0 0 1024 1024;" xml:space="preserve">
<style type="text/css">
	.st0{fill:none;}
</style>
<rect x="0.3" class="st0" width="1024" height="1024"/>
<path d="M345.5,170.2h126.1c21.6,0,36-16.2,36-36s-14.4-36-36-36H345.5c-21.6,0-36,16.2-36,36S323.8,170.2,345.5,170.2z"/>
<path d="M697.3,541.9v-5.5c0-24.1,19.5-43.6,43.6-43.6s43.6,19.5,43.6,43.6v5.5c16,4.1,31.1,10.5,45,18.7l3.9-3.9
	c17-17,44.6-17,61.7,0c17,17,17,44.5,0,61.5c0,0,0,0,0,0l-3.9,3.9c8.2,13.8,14.5,28.9,18.6,44.9h5.5c24-1.1,44.4,17.5,45.5,41.6
	c1.1,24-17.5,44.4-41.6,45.5c-1.3,0.1-2.6,0.1-3.9,0h-5.5c-4.1,15.8-10.3,30.9-18.7,44.9l3.9,3.9c17,17,17,44.5,0.1,61.5
	c0,0,0,0-0.1,0.1c-17,17-44.6,17-61.7,0l-3.9-3.9c-14,8.3-29.2,14.6-45,18.6v5.5c0,24.1-19.5,43.6-43.6,43.6
	c-24.1,0-43.6-19.5-43.6-43.6v-5.5c-15.8-4.1-30.9-10.3-45-18.6l-3.9,3.9c-17.1,16.5-44.3,16.2-61.1-0.6c-16.8-16.8-17.1-44-0.5-61
	l3.9-3.9c-8.3-14-14.6-29.1-18.7-44.9h-5.5c-24,1.1-44.4-17.5-45.5-41.6c-1.1-24,17.5-44.4,41.6-45.5c1.3-0.1,2.6-0.1,3.9,0h5.5
	c4.1-16,10.5-31.1,18.6-44.9l-3.9-3.9c-17-17-17-44.5,0-61.5c0,0,0,0,0.1-0.1c17-17,44.6-17,61.7,0l3.9,3.9
	C666.3,552.2,681.5,546,697.3,541.9z M740.9,797.6c48.1,0,87.1-39,87.1-87.1s-39-87.1-87.1-87.1c-48.1-1.5-88.3,36.2-89.8,84.3
	s36.2,88.3,84.3,89.8C737.2,797.7,739,797.7,740.9,797.6z"/>
<g>
	<path d="M688.4,918.6v-0.9c0-3.3-2.2-6.3-5.4-7.2c-15.2-4.4-29.9-10.4-43.7-18.1c-2.9-1.6-6.5-1.1-8.9,1.2l-0.7,0.7
		c-20.6,19.8-53.2,19.5-73.4-0.7c-20.2-20.2-20.5-52.9-0.6-73.4l0.7-0.7c2.4-2.4,2.9-6,1.2-8.9c-7.7-13.8-13.8-28.5-18.2-43.7
		c-0.9-3.2-3.8-5.4-7.2-5.4h-0.9c-28.9,1.3-53.4-21.1-54.6-50s21.1-53.4,50-54.7c1.6-0.1,3.1-0.1,4.7,0h0.9c3.3,0,6.3-2.2,7.2-5.4
		c4.4-15.4,10.5-30,18.1-43.7c1.6-2.9,1.1-6.5-1.2-8.9l-0.7-0.7c-20.4-20.4-20.5-53.5,0-74c0,0,0.1-0.1,0.1-0.1
		c20.5-20.5,53.6-20.5,74.1,0l0,0c2.7,2.8,7,3.3,10.4,1.5c13.6-7.5,28-13.4,43-17.7c3.2-0.9,5.4-3.8,5.4-7.2V500
		c0-28.9,23.5-52.4,52.4-52.4c1.2,0,2.3,0,3.5,0.1c4.4,0.3,8.1-3.1,8.1-7.5V155.9c0-22.1-17.9-40-40-40H550.8
		c-4.1,0-7.5,3.3-7.5,7.5v3.3c0,38.5-31.5,70-70,70H347c-38.5,0-70-31.5-70-70v-3.3c0-4.1-3.4-7.5-7.5-7.5h-165
		c-22.1,0-40,17.9-40,40v730.4c0,22.1,17.9,40,40,40H681c4.1,0,7.4-3.3,7.4-7.4L688.4,918.6z M202.9,299.3h377.4
		c14.4,0,27,12.6,27,27s-12.6,27-27,27H202.9c-14.4,0-26.9-12.6-26.9-27S188.5,299.3,202.9,299.3z M400.5,766.5H202.9
		c-14.4,0-26.9-12.6-26.9-27s12.6-27,26.9-27h196.5c17.5,0,31.1,16,27.5,33C424.2,758.4,413,766.5,400.5,766.5z M436.5,550.8H202.9
		c-14.4,0-26.9-12.6-26.9-27s12.6-27,26.9-27h232.5c17.5,0,31.1,16,27.5,33C460.1,542.7,449,550.8,436.5,550.8z"/>
</g>
</svg>
