<?xml version="1.0" encoding="utf-8"?>
<!-- Generator: Adobe Illustrator 23.1.0, SVG Export Plug-In . SVG Version: 6.00 Build 0)  -->
<svg version="1.1" id="图层_1" xmlns="http://www.w3.org/2000/svg" xmlns:xlink="http://www.w3.org/1999/xlink" x="0px" y="0px"
	 viewBox="0 0 1024 1024" style="enable-background:new 0 0 1024 1024;" xml:space="preserve">
<style type="text/css">
	.st0{fill:none;}
	.st1{fill:#9898AC;}
</style>
<rect x="0.3" y="0.3" class="st0" width="1024" height="1024"/>
<path class="st1" d="M920.6,928.2h-165c-22.6,0-41.2-18.1-41.2-41.2V721.5c0-22.6,18.1-41.2,40.7-41.2h165.5
	c22.6,0,41.2,18.6,41.2,41.2v165.1C961.8,909.6,943.2,928.2,920.6,928.2L920.6,928.2z M921,641.5H755.9c-22.6,0-41.2-18.1-41.2-41.2
	V435.8c0-22.6,18.1-41.2,40.7-41.2h165.5c22.6,0,41.2,18.6,41.2,41.2v164.6C962.1,622.9,944,641.5,921,641.5z M920.6,347.5h-165
	c-22.6,0-41.2-18.1-41.2-41.2v-165c0-22.6,18.1-41.2,40.7-41.2h165.5c22.6,0,41.2,18.6,41.2,41.2v165.1
	C961.8,328.9,943.2,347.5,920.6,347.5z M595.5,928.2H430.9c-23,0-41.6-18.1-41.6-41.2V722c0-23,18.6-41.2,41.6-41.2h164.6
	c23,0,41.6,18.1,41.6,41.2v165C637.1,909.6,618.5,928.2,595.5,928.2z M105,680.8h165.1c22.6,0,41.2,18.1,41.2,41.2v165.5
	c0,22.6-18.1,41.2-40.7,41.2H105c-22.6,0-41.2-18.6-41.2-41.2V722.4C63.9,699.4,82.4,680.8,105,680.8z"/>
<path class="st1" d="M567.3,100.1c46.8,0,84.8,38,84.8,84.8v263.4c0,46.9-38,84.8-84.8,84.8H387.1v56.3H503
	c15.5,0,28.1,12.6,28.1,28.2c0,15.5-12.6,28.1-28.1,28.1H214.5c-15.5,0-28.1-12.6-28.1-28.2c0-15.5,12.6-28.1,28.1-28.1h115.9v-56.3
	h-181c-46.8,0-84.8-38-84.8-84.8V185c0-46.9,38-84.9,84.8-84.9l0,0H567.3L567.3,100.1z M500.9,363.9c-15.5,0-28.1,12.6-28.1,28.1
	s12.6,28.1,28.1,28.1c15.5,0,28.1-12.6,28.1-28.1S516.5,363.9,500.9,363.9z M425.7,363.9H228.3c-15.5,0-28.1,12.6-28.1,28.1
	s12.6,28.1,28.1,28.1h197.4c15.5,0,28.1-12.6,28.1-28.1C453.9,376.5,441.3,363.9,425.7,363.9z M227.9,213.1
	c-15.5,0-28.1,12.6-28.1,28.1s12.6,28.1,28.1,28.1l0,0c15.5,0,28.1-12.6,28.1-28.1S243.4,213.1,227.9,213.1z M500.9,213.1H303.5
	c-15.5,0-28.1,12.6-28.1,28.1s12.6,28.1,28.1,28.1h197.4c15.5,0,28.1-12.6,28.1-28.1S516.5,213.1,500.9,213.1z"/>
</svg>
